<?xml version="1.0" encoding="UTF-8"?>
<svg id="_Шар_1" data-name="Шар 1" xmlns="http://www.w3.org/2000/svg" viewBox="0 0 841.89 595.28">
  <defs>
    
  </defs>
  <path class="cls-13" d="M275.52,239.73l-28.32-4.32-3.84,21.6-21.6,3.36-3.36-12.48,4.8-8.64-4.8-11.52,13.44-21.6-6.72-6.72,2.88-13.44,10.08-6.24.96-14.88-6.72-5.76,10.08-14.4,11.52-2.4,3.36-9.6,6.24-1.92c-.19-4.88-.38-9.75-.56-14.63-.13-3.44-.26-6.89-.4-10.33h7.2l12,9.6,4.32-9.6-17.28-17.28,49.92-5.76-2.88-12.96h59.52l29.76,21.12,10.08,24.48,23.04,16.32,3.84,10.56,21.12,8.16-12-22.56,74.4-2.4,13.68-16.8,19.68-10.32,3.84,7.2h9.12l-3.12-22.08,8.4-12.48-3.36-6.48,37.56,7.68,3.6,10.44,11.16-3.24,18.72,12.96,10.8,32.76-40.32,18.36-2.16,7.2-14.04,16.2,6.48,15.12-5.04,23.04,19.8,34.92,19.8,16.2-5.4,12.24,20.88,11.52-1.44,15.12-30.96,25.56-35.28,1.44-12.96-13.68-2.52,35.64-12.24,6.84-21.24-12.96-11.16,1.8-12.6-8.64-6.48,14.04,7.92,5.76-3.6,14.04-.66,11.54,20.1,35.98-11.52,6.12-16.92-11.88,2.88,18.72-5.04,21.24,20.88,45.36-42.12,14.04-10.8-52.38-18.24-.3-4.32-38.4-12.48,1.44-11.4-20.16-3.96-19.44-11.52,3.24-3.96-6.12,6.36-7.68-7.2-2.88-8.88.72-5.04-28.32-8.16-1.68-4.56,7.2-12.3-4.08,1.62-11.34-6.3-5.4,6.66-15.3-16.56-14.24-20.88-12.76-12.6-11.7-8.28-14.46-1.44-15.84-30.96,3.6Z"></path>
  <path class="cls-20" d="M431.58,127.35c1.02,2.88-.09,1.92,3.36,12.06,1.44,4.23,4.05,6.04,3.25,10.44-1.49,8.18-9.2,14.69-8.94,23,.16,5.22,3.48,9.73,5.73,14.44,3.15,6.61,4.3,14.01,7.09,20.78,3.41,8.26,9.13,15.31,13.81,22.92,5.87,9.58,10.08,20.06,14.25,30.49,4.76,11.89,9.61,24.31,8.59,37.08-1.26,15.73-11.23,29.53-13.94,45.08-.28,1.6-.48,3.28.02,4.83.87,2.68,3.53,4.27,5.93,5.74,8.64,5.26,19.11,21.26,19.11,21.26,0,0,7.86,15.51,11.08,23.24,5.89,14.1,10.69,11.85,19.64,19.81,8.25-4.38,9.74-5.18,11.52-6.12,0,0-14.54-20.34-20.45-26.89-14.69-16.28-23.68-37.62-25.06-59.51-.31-4.95,7.23-14.97,7.23-14.97,0,0,4.46-16.55,6.49-26.09,1.42-6.67-.12-13.58-1.66-20.23-4.55-19.69-20.67-59.52-20.67-59.52,0,0-21.57-11.08-21.87-22.33-.27-10.2,14.73-25.37,6.99-32.03-2.58-2.22-21.21-8.1-21.48-8.55-1.91-3.18-1.62-5.85-3.84-10.56l-6.18-4.38Z"></path>
  <text class="cls-15" transform="translate(325.17 400.15)"><tspan class="cls-11" x="0" y="0">LI</tspan><tspan class="cls-25" x="14" y="0">O</tspan><tspan class="cls-18" x="30.38" y="0">N </tspan><tspan class="cls-14" x="47.58" y="0">HI</tspan><tspan class="cls-17" x="64.19" y="0">L</tspan><tspan class="cls-21" x="73.86" y="0">L</tspan><tspan x="82.68" y="0">S</tspan></text>
  <g>
    <path class="cls-9" d="M262.06,112.58c6.91,7.13,13.94,14.18,21.46,20.67,7.54,6.5,15.66,12.25,24.94,15.99,9.94,4.01,20.49,5.21,31.02,3.1,5.5-1.11,10.84-2.89,16.13-4.73s10.29-3.35,15.27-5.42c4.28-1.78,8.4-3.94,12.72-5.61,4.86-1.87,9.92-2.81,15.12-3.07.8-.04.81-1.29,0-1.25-4.53.22-9.01.91-13.31,2.35-3.67,1.23-7.15,2.93-10.67,4.53-4.57,2.09-9.25,3.75-14,5.37-5.25,1.79-10.46,3.73-15.81,5.22-5.28,1.48-10.71,2.51-16.22,2.48-5.31-.03-10.57-.98-15.62-2.61-9.71-3.12-18.37-8.63-26.18-15.1-8.5-7.04-16.31-14.88-23.98-22.8-.56-.58-1.44.31-.88.88h0Z"></path>
    <path class="cls-9" d="M374.28,69.98c2.73,12.88,4.91,25.86,7.55,38.76.7,3.4,1.65,6.84,1.68,10.33s-1.44,6.81-2.93,10.06c-1.36,2.97-2.35,5.96-2.72,9.21-.4,3.51-.2,7.05.07,10.56.55,6.91,1.03,14.04,3.61,20.55,2.15,5.42,5.57,10.23,9.66,14.37,4.15,4.19,8.93,7.72,13.92,10.82,4.78,2.97,9.95,5.32,14.45,8.72,2.4,1.81,4.67,3.98,6.06,6.68s1.57,5.88.81,8.93c-1.3,5.19-5.18,11.39-1.99,16.61.42.69,1.5.06,1.08-.63-2.92-4.79.92-10.88,2.12-15.65,1.26-5.02-.02-9.66-3.48-13.48-3.58-3.97-8.43-6.58-13.05-9.13-5.3-2.92-10.44-6.19-15.07-10.1-4.53-3.82-8.58-8.28-11.43-13.5-3.39-6.19-4.47-13.07-5.09-20.02s-1.51-14.4,1.16-21.11c1.21-3.04,2.94-5.9,3.67-9.12s.27-6.7-.4-10c-2.92-14.39-5.44-28.85-8.48-43.21-.17-.79-1.37-.45-1.21.33h0Z"></path>
    <path class="cls-9" d="M219.82,232.91c6.28-.3,12.24-2.13,18.15-4.16,6.41-2.2,12.77-4.19,19.53-4.99,14.04-1.68,28.18.23,42.26-.22,6.9-.22,13.78-.97,20.56-2.23,3.44-.64,6.86-1.42,10.24-2.33s6.56-2.02,9.87-2.91c3.44-.93,6.9-1.36,10.43-.67,3.33.65,6.48,1.99,9.6,3.29,6.35,2.66,12.81,5.02,19.38,7.1,14.68,4.64,29.77,7.89,45,10.09.79.11,1.13-1.09.33-1.21-13.69-1.98-27.27-4.8-40.54-8.72-6.55-1.93-13.01-4.13-19.36-6.64s-12.39-5.89-19.17-5.5c-3.27.19-6.42,1.13-9.53,2.1-3.32,1.04-6.66,2-10.05,2.81-6.99,1.67-14.11,2.77-21.28,3.29-14.17,1.03-28.34-.84-42.51.03-7.61.47-14.88,2.03-22.09,4.48-6.81,2.31-13.56,4.79-20.82,5.14-.8.04-.81,1.29,0,1.25h0Z"></path>
    <path class="cls-9" d="M389.26,80.28c-.34,2.98-.39,5.93-.52,8.91-.18,4.05-1.18,8.15-.65,12.2s2.98,7.48,5.05,10.97c2.19,3.69,3.52,7.7,4.2,11.93,1.38,8.46.51,17.1,1.47,25.61.88,7.78,3.53,15.33,8.1,21.72,4.51,6.3,10.74,11.19,18.05,13.82,7.59,2.72,15.63,2.67,23.23.05,7.5-2.58,14.51-7.02,22.44-8.26,3.67-.57,8.6-.49,11.63,1.97,3.14,2.55,1.81,7.26,1.84,10.73.05,6.1,2.32,12.14,4.73,17.65,1.81,4.15,3.9,8.2,6.22,12.08.12.21.24.42.38.62.43.67,1.51.06,1.08-.63h0c-.43-.69-1.51-.06-1.08.62h0c.36-.2.72-.41,1.08-.62-1.77-2.74-3.27-5.69-4.7-8.61-2.73-5.57-5.24-11.51-6.17-17.69-.49-3.26.14-6.45-.1-9.71-.12-1.62-.53-3.22-1.57-4.51-1.15-1.42-2.87-2.18-4.59-2.68-7.36-2.15-14.8.79-21.5,3.7-7.51,3.26-14.88,6.61-23.27,6.05-8.26-.55-16.18-4.23-22.1-9.97-5.74-5.58-9.64-12.9-11.47-20.66-1.97-8.31-1.28-16.92-1.81-25.37-.25-4.01-.77-8.05-2.01-11.89-1.27-3.94-3.53-7.24-5.56-10.81-1.03-1.8-1.9-3.7-2.25-5.76-.4-2.36-.16-4.78.1-7.13.34-3.03.47-6.02.58-9.07.06-1.76.23-3.51.43-5.26.09-.8-1.16-.79-1.25,0h0Z"></path>
    <path class="cls-9" d="M426.96,212.2c2.12-.27,4.61,1.99,6.09,3.23,2.12,1.77,3.95,3.85,5.84,5.86,5.16,5.47,10.45,10.84,15.47,16.44,2.24,2.49,4.34,5.15,5.76,8.21,1.54,3.33,2.16,7.01,2.89,10.58.78,3.78,1.56,7.56,2.34,11.34.36,1.75.88,3.56.98,5.34.12,2.13-.88,3.62-2.17,5.2-3.23,3.94-6.45,7.9-9.69,11.83-.51.62.37,1.5.88.88,3.14-3.8,6.24-7.64,9.37-11.44.87-1.06,1.8-2.11,2.35-3.38.66-1.54.57-3.16.29-4.78-.7-4-1.63-7.97-2.45-11.94s-1.4-7.71-2.6-11.41c-1.09-3.35-2.91-6.31-5.11-9.03-2.36-2.92-5.04-5.59-7.61-8.32-2.82-2.99-5.63-5.97-8.45-8.96-2.45-2.59-4.78-5.34-7.56-7.59-1.69-1.38-4.24-3.6-6.61-3.3-.79.1-.8,1.35,0,1.25h0Z"></path>
    <path class="cls-9" d="M636.2,134.34c3.88-6.6,6.6-13.65,7.74-21.23.64-4.25.6-9.07,3.21-12.7.47-.65-.61-1.28-1.08-.63-2.58,3.6-2.66,8.27-3.26,12.5-1.1,7.67-3.76,14.76-7.69,21.43-.41.7.67,1.32,1.08.63h0Z"></path>
    <path class="cls-9" d="M635.66,134.65c.8,0,.81-1.25,0-1.25s-.81,1.25,0,1.25h0Z"></path>
    <path class="cls-9" d="M603.05,177.71c.8,0,.81-1.25,0-1.25s-.81,1.25,0,1.25h0Z"></path>
    <path class="cls-9" d="M457.49,240.21c19.62-11.83,40.94-20.67,62.29-28.84,19.88-7.61,40.08-14.38,59.81-22.38,8.12-3.3,16.29-6.77,23.79-11.36.69-.42.06-1.5-.63-1.08-6.67,4.08-13.89,7.26-21.1,10.25-9.1,3.77-18.34,7.18-27.58,10.57-21.32,7.81-42.73,15.42-63.51,24.59-11.54,5.09-22.89,10.66-33.69,17.17-.69.41-.06,1.5.63,1.08h0Z"></path>
    <path class="cls-9" d="M509.02,216.17c4.67,5.25,3.09,14.32-.37,19.78-4.45,7.02-12.95,10.55-20.17,13.93-4.3,2.02-8.62,3.99-13.1,5.59-4.53,1.62-9.12,2.63-13.86,3.36-4.33.67-8.49,1.6-12.34,3.75-3.69,2.06-6.94,4.83-10.09,7.62-6.94,6.15-13.91,12.35-20.02,19.34-3.05,3.49-5.71,7.27-8.62,10.87-2.96,3.65-6.34,6.71-10.14,9.47-3.64,2.65-7.25,5.48-11.08,7.85-.89.55-1.84.97-2.75,1.47-1.44.79-2.71,1.93-3.95,2.98-4.11,3.47-8.11,7.08-12.12,10.66-1.69,1.51-3.38,3.02-5.07,4.54-.6.54.29,1.42.88.88,5.11-4.58,10.21-9.18,15.4-13.67,1.62-1.4,3.24-2.94,5.08-4.08.8-.49,1.68-.84,2.5-1.3,3.12-1.79,5.94-4.1,8.86-6.18,3.67-2.61,7.37-5.21,10.47-8.5,3.22-3.41,5.86-7.3,8.79-10.95,5.94-7.4,12.97-13.82,20.02-20.14,3.37-3.01,6.7-6.12,10.5-8.59,3.98-2.59,8.24-3.89,12.9-4.65,4.73-.77,9.34-1.61,13.89-3.16,4.45-1.52,8.75-3.43,13.01-5.41,7.46-3.47,15.71-6.88,20.97-13.51,3.99-5.03,5.81-12.88,3.57-19.02-.52-1.42-1.27-2.7-2.27-3.84-.54-.6-1.42.28-.88.88h0Z"></path>
    <path class="cls-9" d="M306.58,148.04c1.3,11.75.76,23.55-1.57,35.14-1.15,5.71-2.88,11.27-4.17,16.94s-1.62,11.05-.73,16.73c1,6.37,2.95,12.77,1.97,19.27-.12.79,1.09,1.13,1.21.33.83-5.52-.31-10.95-1.34-16.36-.55-2.91-1.07-5.83-1.16-8.8s.27-6.05.87-9.02c1.16-5.77,2.99-11.38,4.23-17.14,1.2-5.59,2.04-11.26,2.43-16.96.46-6.72.27-13.45-.48-20.14-.09-.79-1.34-.8-1.25,0h0Z"></path>
    <path class="cls-9" d="M439.26,415.88c1.5-11.4,3-22.8,4.5-34.2.88-6.72,1.73-13.5,3.75-20,.99-3.2,2.29-6.25,3.92-9.18,1.53-2.76,3.17-5.51,3.85-8.63s.53-6.52.32-9.78c-.25-3.72-.44-7.45-.53-11.18-.16-7.19.03-14.39.56-21.56.13-1.79.29-3.58.46-5.37.12-1.18.6-2.74.22-3.85-.19-.54-.51-1.33-.86-1.79s-.94-.71-1.36-1.07c-.7-.62-1.3-1.35-1.83-2.12-1.85-2.69-3.21-5.8-4.58-8.75-1.49-3.2-2.86-6.45-4.11-9.75-4.52-11.88-8.3-25.04-18.12-33.83-.6-.54-1.48.35-.88.88,8.65,7.74,12.83,19.34,16.59,29.98,2.25,6.36,4.93,12.58,8.01,18.58.65,1.26,1.31,2.52,2.13,3.67.86,1.22,1.92,2.02,2.97,3.04.35.34.75,1.11.9,1.64.12.42-.07.92-.12,1.4-.12,1.14-.24,2.28-.34,3.42-.66,7.16-.97,14.36-.94,21.55.02,3.6.12,7.19.31,10.78s.59,6.87.42,10.31c-.17,3.61-1.34,6.72-3.07,9.85-1.53,2.77-3.02,5.52-4.13,8.49-2.29,6.11-3.35,12.59-4.23,19.03-1.75,12.8-3.37,25.61-5.06,38.42-.1.8,1.15.79,1.25,0h0Z"></path>
    <path class="cls-9" d="M453.69,345.04c1.88,15.21,3.77,30.6,8.82,45.15,2.43,6.99,5.61,13.66,9.64,19.87,3.98,6.14,8.53,11.91,13.15,17.58,5.22,6.42,10.63,12.7,15.65,19.29.48.63,1.57,0,1.08-.63-8.8-11.55-18.76-22.2-27-34.18-4.17-6.06-7.64-12.5-10.26-19.38-2.68-7.04-4.56-14.37-6-21.76-1.67-8.58-2.75-17.26-3.82-25.93-.1-.79-1.35-.8-1.25,0h0Z"></path>
    <path class="cls-9" d="M455.5,293.11c10.24,6.72,22.79,6.41,34.43,4.51,6.29-1.03,12.68-2.27,18.78-4.15,6.52-2,12.79-4.72,19.26-6.86s13.54-3.52,20.58-3.78c6.92-.26,13.86.37,20.68,1.55,13.32,2.29,26.48,6.27,39.05,11.2,5.29,2.08,10.54,4.32,16.02,5.87,6.32,1.78,12.83,2.5,19.39,2.54.8,0,.81-1.24,0-1.25-5.99-.04-11.94-.63-17.75-2.14-4.78-1.25-9.38-3.06-13.96-4.89-12.12-4.83-24.55-8.88-37.33-11.56-13.28-2.78-27.16-3.84-40.47-.63-6.56,1.59-12.81,4.17-19.14,6.48-6.17,2.26-12.42,3.87-18.85,5.19-13.22,2.71-28.13,4.68-40.06-3.15-.67-.44-1.3.64-.63,1.08h0Z"></path>
    <path class="cls-9" d="M480.16,254.39c.36,4.75,1.06,9.52,2.29,14.12.51,1.92,1.22,3.87,2.63,5.33,1.3,1.35,3.04,2.1,4.7,2.89,3.34,1.58,5.64,4.17,7.52,7.32,1.8,3,3.32,6.46,3.6,9.98.06.8,1.31.8,1.25,0-.26-3.28-1.5-6.47-3.05-9.35-1.57-2.91-3.61-5.83-6.35-7.75-1.47-1.03-3.21-1.6-4.77-2.48-2.2-1.24-3.38-3.1-4.09-5.48-1.41-4.7-2.1-9.7-2.47-14.58-.06-.8-1.31-.8-1.25,0h0Z"></path>
  </g>
  <circle class="cls-7" cx="420.13" cy="231.93" r="6"></circle>
  <path class="cls-3" d="M434.41,371.87c-5.08,0-9.2,4.12-9.2,9.2s9.2,19.08,9.2,19.08c0,0,9.2-14,9.2-19.08s-4.12-9.2-9.2-9.2ZM434.41,385.21c-2.04,0-3.69-1.65-3.69-3.69s1.65-3.69,3.69-3.69,3.69,1.65,3.69,3.69-1.65,3.69-3.69,3.69Z"></path>
  <path class="cls-5" d="M275.04,239.73l-28.32-4.32-3.84,21.6-21.6,3.36-3.36-12.48,4.8-8.64-4.8-11.52,13.44-21.6-6.72-6.72,2.88-13.44,10.08-6.24.96-14.88-6.72-5.76,10.08-14.4,11.52-2.4,3.36-9.6,6.24-1.92c-.19-4.88-.38-9.75-.56-14.63-.13-3.44-.26-6.89-.4-10.33h7.2l12,9.6,4.32-9.6-17.28-17.28,49.92-5.76-2.88-12.96h59.52l29.76,21.12,10.08,24.48,23.04,16.32,3.84,10.56,21.12,8.16-12-22.56,74.4-2.4,13.68-16.8,19.68-10.32,3.84,7.2h9.12l-3.12-22.08,8.4-12.48-3.36-6.48,37.56,7.68,3.6,10.44,11.16-3.24,18.72,12.96,10.8,32.76-40.32,18.36-2.16,7.2-14.04,16.2,6.48,15.12-5.04,23.04,19.8,34.92,19.8,16.2-5.4,12.24,20.88,11.52-1.44,15.12-30.96,25.56-35.28,1.44-12.96-13.68-2.52,35.64-12.24,6.84-21.24-12.96-11.16,1.8-12.6-8.64-6.48,14.04,7.92,5.76-3.6,14.04-.66,11.54,20.1,35.98-11.52,6.12-16.92-11.88,2.88,18.72-5.04,21.24,20.88,45.36-42.12,14.04-10.8-52.38-18.24-.3-4.32-38.4-12.48,1.44-11.4-20.16-3.96-19.44-11.52,3.24-3.96-6.12,6.36-7.68-7.2-2.88-8.88.72-5.04-28.32-8.16-1.68-4.56,7.2-12.3-4.08,1.62-11.34-6.3-5.4,6.66-15.3-16.56-14.24-20.88-12.76-12.6-11.7-8.28-14.46-1.44-15.84-30.96,3.6Z"></path>
  <text class="cls-16" transform="translate(390.52 209.23)"><tspan x="0" y="0">Київ </tspan><tspan class="cls-10" x="25.57" y="0">ц</tspan><tspan class="cls-1" x="32.47" y="0">ентр</tspan></text>
  <text class="cls-12" transform="translate(390.55 219.4)"><tspan x="0" y="0">15 хвилин</tspan></text>
  <text class="cls-16" transform="translate(455.8 377.9)"><tspan x="0" y="0">Ліс </tspan><tspan class="cls-24" x="20.47" y="0">К</tspan><tspan class="cls-19" x="27.04" y="0">онча Заспа</tspan></text>
  <text class="cls-12" transform="translate(455.83 388.07)"><tspan x="0" y="0">5 хвилин</tspan></text>
  <text class="cls-16" transform="translate(394.92 340.84)"><tspan class="cls-23" x="0" y="0">E</tspan><tspan class="cls-19" x="6.23" y="0">quid</tspan><tspan class="cls-10" x="30.83" y="0">e</tspan><tspan class="cls-1" x="37.58" y="0">s Club</tspan></text>
  <text class="cls-12" transform="translate(394.95 351.01)"><tspan x="0" y="0">5 хвилин</tspan></text>
  <text class="cls-16" transform="translate(416.57 464.41)"><tspan class="cls-22" x="0" y="0">Б</tspan><tspan x="6.8" y="0">лакитне </tspan><tspan class="cls-26" x="55.97" y="0">о</tspan><tspan x="62.95" y="0">зеро</tspan></text>
  <text class="cls-12" transform="translate(417.47 474.58)"><tspan x="0" y="0">7 хвилин</tspan></text>
  <path class="cls-20" d="M454.13,444.71c.51.11,4.36-1.55,5.13-1.35.77.2,1.17,1.58,1.09,2.63-.1,1.43.73,4.69.45,5.42-.21.54-1.27.88-2.12.68-1.3-.31-1.06-1.66-2.85-3.39-1.29-1.25-2.34-1.44-2.44-2.38-.07-.66.38-1.24.73-1.61Z"></path>
  <circle class="cls-7" cx="461.64" cy="439.64" r="6"></circle>
  <circle class="cls-7" cx="475.76" cy="400.15" r="6"></circle>
  <circle class="cls-7" cx="417.98" cy="363.1" r="6"></circle>
  <g>
    <path class="cls-4" d="M421.05,242.59c-.17,1.78.03,3.42.49,4.95"></path>
    <path class="cls-8" d="M426.66,255.93c2.28,2.74,4.81,5.48,6.68,8.67,4.61,7.83,32.1,30.56,10.77,54.92-14,15.99-3.31,25.39-4.48,38.18"></path>
    <path class="cls-4" d="M438.62,362.53c-.49,1.46-1.16,2.98-2.06,4.55"></path>
  </g>
  <g>
    <path class="cls-4" d="M437.1,403.71c1.28.85,2.76,1.65,4.37,2.43"></path>
    <path class="cls-6" d="M448.88,409.33c10.06,4.06,21.11,8.23,21.85,15.9"></path>
    <path class="cls-4" d="M470.25,429.19c-.44,1.38-1.18,2.86-2.25,4.45"></path>
  </g>
  <g>
    <path class="cls-4" d="M440.34,395.82c1.73-.42,3.33-.82,4.86-1.17"></path>
    <path class="cls-2" d="M451.33,393.55c3.01-.3,5.94-.14,9.25.85"></path>
    <path class="cls-4" d="M463.52,395.46c1.41.59,2.89,1.32,4.48,2.22"></path>
  </g>
</svg>